<mxfile host="app.diagrams.net" modified="2023-06-21T10:09:03.915Z" agent="Mozilla/5.0 (Macintosh; Intel Mac OS X 10_15_7) AppleWebKit/605.1.15 (KHTML, like Gecko) Version/16.5 Safari/605.1.15" etag="i-K7SO6sx_CePVqmvbXX" version="21.5.0" type="device">
  <diagram name="Seite-1" id="1lOM7LZerqZPnMOpxiHa">
    <mxGraphModel dx="569" dy="380" grid="1" gridSize="10" guides="1" tooltips="1" connect="1" arrows="1" fold="1" page="1" pageScale="1" pageWidth="827" pageHeight="1169" math="0" shadow="0">
      <root>
        <mxCell id="0" />
        <mxCell id="1" parent="0" />
        <mxCell id="12iBxm_VB4zqUITPJ39q-1" value="" style="endArrow=classic;html=1;rounded=0;endFill=1;startArrow=oval;startFill=0;" parent="1" edge="1">
          <mxGeometry width="50" height="50" relative="1" as="geometry">
            <mxPoint x="280" y="180" as="sourcePoint" />
            <mxPoint x="200" y="200" as="targetPoint" />
          </mxGeometry>
        </mxCell>
        <mxCell id="12iBxm_VB4zqUITPJ39q-2" value="" style="endArrow=classic;html=1;rounded=0;startArrow=oval;startFill=0;" parent="1" edge="1">
          <mxGeometry width="50" height="50" relative="1" as="geometry">
            <mxPoint x="360" y="200" as="sourcePoint" />
            <mxPoint x="280" y="180" as="targetPoint" />
          </mxGeometry>
        </mxCell>
        <mxCell id="12iBxm_VB4zqUITPJ39q-3" value="" style="endArrow=classic;html=1;rounded=0;startArrow=oval;startFill=0;strokeColor=default;snapToPoint=0;ignoreEdge=0;comic=0;enumerate=0;orthogonal=0;orthogonalLoop=0;flowAnimation=0;noJump=0;backgroundOutline=0;fixDash=0;anchorPointDirection=1;endFill=1;shadow=0;endSize=6;targetPerimeterSpacing=0;startSize=6;sourcePerimeterSpacing=0;" parent="1" edge="1">
          <mxGeometry width="50" height="50" relative="1" as="geometry">
            <mxPoint x="200" y="200" as="sourcePoint" />
            <mxPoint x="360" y="200" as="targetPoint" />
          </mxGeometry>
        </mxCell>
        <mxCell id="12iBxm_VB4zqUITPJ39q-5" value="e&lt;sub&gt;1&lt;/sub&gt;" style="text;strokeColor=none;align=center;fillColor=none;html=1;verticalAlign=middle;whiteSpace=wrap;rounded=0;" parent="1" vertex="1">
          <mxGeometry x="270" y="200" width="20" height="20" as="geometry" />
        </mxCell>
        <mxCell id="12iBxm_VB4zqUITPJ39q-9" value="" style="endArrow=classic;html=1;rounded=0;startArrow=oval;startFill=0;" parent="1" edge="1">
          <mxGeometry width="50" height="50" relative="1" as="geometry">
            <mxPoint x="360" y="200" as="sourcePoint" />
            <mxPoint x="280" y="150" as="targetPoint" />
          </mxGeometry>
        </mxCell>
        <mxCell id="12iBxm_VB4zqUITPJ39q-10" value="" style="endArrow=classic;html=1;rounded=0;endFill=1;startArrow=oval;startFill=0;" parent="1" edge="1">
          <mxGeometry width="50" height="50" relative="1" as="geometry">
            <mxPoint x="280" y="150" as="sourcePoint" />
            <mxPoint x="200" y="200" as="targetPoint" />
          </mxGeometry>
        </mxCell>
        <mxCell id="12iBxm_VB4zqUITPJ39q-11" value="" style="endArrow=classic;html=1;rounded=0;startArrow=oval;startFill=0;" parent="1" edge="1">
          <mxGeometry width="50" height="50" relative="1" as="geometry">
            <mxPoint x="360" y="200" as="sourcePoint" />
            <mxPoint x="280" y="110" as="targetPoint" />
          </mxGeometry>
        </mxCell>
        <mxCell id="12iBxm_VB4zqUITPJ39q-12" value="" style="endArrow=classic;html=1;rounded=0;endFill=1;startArrow=oval;startFill=0;" parent="1" edge="1">
          <mxGeometry width="50" height="50" relative="1" as="geometry">
            <mxPoint x="280" y="110" as="sourcePoint" />
            <mxPoint x="200" y="200" as="targetPoint" />
          </mxGeometry>
        </mxCell>
        <mxCell id="12iBxm_VB4zqUITPJ39q-13" value="..." style="text;strokeColor=none;align=center;fillColor=none;html=1;verticalAlign=middle;whiteSpace=wrap;rounded=0;" parent="1" vertex="1">
          <mxGeometry x="265" y="121.87" width="30" height="8.13" as="geometry" />
        </mxCell>
        <mxCell id="12iBxm_VB4zqUITPJ39q-14" value="" style="ellipse;whiteSpace=wrap;html=1;rotation=90;fillColor=none;dashed=1;dashPattern=1 1;strokeColor=#001DBC;fontColor=#ffffff;" parent="1" vertex="1">
          <mxGeometry x="227.5" y="113.24" width="105" height="58.52" as="geometry" />
        </mxCell>
        <mxCell id="12iBxm_VB4zqUITPJ39q-16" value="&lt;span style=&quot;caret-color: rgb(0, 0, 255);&quot;&gt;&lt;font color=&quot;#0000cc&quot;&gt;k &lt;/font&gt;+&lt;font color=&quot;#0000cc&quot;&gt; &lt;/font&gt;&lt;font color=&quot;#ff9300&quot;&gt;2&lt;/font&gt;&lt;/span&gt;" style="text;strokeColor=none;align=center;fillColor=none;html=1;verticalAlign=middle;whiteSpace=wrap;rounded=0;" parent="1" vertex="1">
          <mxGeometry x="320" y="92.2" width="40" height="11.87" as="geometry" />
        </mxCell>
        <mxCell id="mi22OaL5r2FWR6us9zC6-1" value="&lt;font color=&quot;#ff8000&quot; style=&quot;font-size: 10px;&quot;&gt;u&lt;/font&gt;" style="text;strokeColor=none;align=center;fillColor=none;html=1;verticalAlign=middle;whiteSpace=wrap;rounded=0;" parent="1" vertex="1">
          <mxGeometry x="180" y="190" width="20" height="20" as="geometry" />
        </mxCell>
        <mxCell id="mi22OaL5r2FWR6us9zC6-2" value="&lt;font size=&quot;1&quot; color=&quot;#ff9300&quot;&gt;&lt;span style=&quot;caret-color: rgb(255, 147, 0);&quot;&gt;w&lt;/span&gt;&lt;/font&gt;" style="text;strokeColor=none;align=center;fillColor=none;html=1;verticalAlign=middle;whiteSpace=wrap;rounded=0;" parent="1" vertex="1">
          <mxGeometry x="360" y="190" width="20" height="20" as="geometry" />
        </mxCell>
        <mxCell id="mi22OaL5r2FWR6us9zC6-3" value="&lt;font style=&quot;font-size: 10px;&quot;&gt;v&lt;sub&gt;1&lt;/sub&gt;&lt;/font&gt;" style="text;strokeColor=none;align=center;fillColor=none;html=1;verticalAlign=middle;whiteSpace=wrap;rounded=0;fontColor=#0000CC;" parent="1" vertex="1">
          <mxGeometry x="270" y="160" width="20" height="20" as="geometry" />
        </mxCell>
        <mxCell id="mi22OaL5r2FWR6us9zC6-4" value="&lt;font size=&quot;1&quot;&gt;v&lt;sub&gt;2&lt;/sub&gt;&lt;/font&gt;" style="text;strokeColor=none;align=center;fillColor=none;html=1;verticalAlign=middle;whiteSpace=wrap;rounded=0;fontColor=#0000CC;" parent="1" vertex="1">
          <mxGeometry x="270" y="130" width="20" height="20" as="geometry" />
        </mxCell>
        <mxCell id="mi22OaL5r2FWR6us9zC6-5" value="&lt;font size=&quot;1&quot;&gt;v&lt;sub&gt;k&lt;/sub&gt;&lt;/font&gt;" style="text;strokeColor=none;align=center;fillColor=none;html=1;verticalAlign=middle;whiteSpace=wrap;rounded=0;fontColor=#0000CC;" parent="1" vertex="1">
          <mxGeometry x="270" y="88.13" width="20" height="20" as="geometry" />
        </mxCell>
        <mxCell id="sM7RQ8VBhMA7z35c0zFS-38" value="" style="endArrow=classic;html=1;rounded=0;endFill=1;startArrow=oval;startFill=0;" edge="1" parent="1">
          <mxGeometry width="50" height="50" relative="1" as="geometry">
            <mxPoint x="520" y="180" as="sourcePoint" />
            <mxPoint x="440" y="200" as="targetPoint" />
          </mxGeometry>
        </mxCell>
        <mxCell id="sM7RQ8VBhMA7z35c0zFS-39" value="" style="endArrow=classic;html=1;rounded=0;startArrow=oval;startFill=0;" edge="1" parent="1">
          <mxGeometry width="50" height="50" relative="1" as="geometry">
            <mxPoint x="600" y="200" as="sourcePoint" />
            <mxPoint x="520" y="180" as="targetPoint" />
          </mxGeometry>
        </mxCell>
        <mxCell id="sM7RQ8VBhMA7z35c0zFS-40" value="" style="endArrow=classic;html=1;rounded=0;startArrow=oval;startFill=0;strokeColor=default;snapToPoint=0;ignoreEdge=0;comic=0;enumerate=0;orthogonal=0;orthogonalLoop=0;flowAnimation=0;noJump=0;backgroundOutline=0;fixDash=0;anchorPointDirection=1;endFill=1;shadow=0;endSize=6;targetPerimeterSpacing=0;startSize=6;sourcePerimeterSpacing=0;" edge="1" parent="1">
          <mxGeometry width="50" height="50" relative="1" as="geometry">
            <mxPoint x="440" y="200" as="sourcePoint" />
            <mxPoint x="600" y="200" as="targetPoint" />
          </mxGeometry>
        </mxCell>
        <mxCell id="sM7RQ8VBhMA7z35c0zFS-41" value="e&lt;sub&gt;k&lt;/sub&gt;" style="text;strokeColor=none;align=center;fillColor=none;html=1;verticalAlign=middle;whiteSpace=wrap;rounded=0;" vertex="1" parent="1">
          <mxGeometry x="510" y="200" width="20" height="20" as="geometry" />
        </mxCell>
        <mxCell id="sM7RQ8VBhMA7z35c0zFS-42" value="" style="endArrow=classic;html=1;rounded=0;startArrow=oval;startFill=0;" edge="1" parent="1">
          <mxGeometry width="50" height="50" relative="1" as="geometry">
            <mxPoint x="600" y="200" as="sourcePoint" />
            <mxPoint x="520" y="150" as="targetPoint" />
          </mxGeometry>
        </mxCell>
        <mxCell id="sM7RQ8VBhMA7z35c0zFS-43" value="" style="endArrow=classic;html=1;rounded=0;endFill=1;startArrow=oval;startFill=0;" edge="1" parent="1">
          <mxGeometry width="50" height="50" relative="1" as="geometry">
            <mxPoint x="520" y="150" as="sourcePoint" />
            <mxPoint x="440" y="200" as="targetPoint" />
          </mxGeometry>
        </mxCell>
        <mxCell id="sM7RQ8VBhMA7z35c0zFS-44" value="" style="endArrow=classic;html=1;rounded=0;startArrow=oval;startFill=0;" edge="1" parent="1">
          <mxGeometry width="50" height="50" relative="1" as="geometry">
            <mxPoint x="600" y="200" as="sourcePoint" />
            <mxPoint x="520" y="110" as="targetPoint" />
          </mxGeometry>
        </mxCell>
        <mxCell id="sM7RQ8VBhMA7z35c0zFS-45" value="" style="endArrow=classic;html=1;rounded=0;endFill=1;startArrow=oval;startFill=0;" edge="1" parent="1">
          <mxGeometry width="50" height="50" relative="1" as="geometry">
            <mxPoint x="520" y="110" as="sourcePoint" />
            <mxPoint x="440" y="200" as="targetPoint" />
          </mxGeometry>
        </mxCell>
        <mxCell id="sM7RQ8VBhMA7z35c0zFS-46" value="..." style="text;strokeColor=none;align=center;fillColor=none;html=1;verticalAlign=middle;whiteSpace=wrap;rounded=0;" vertex="1" parent="1">
          <mxGeometry x="505" y="121.87" width="30" height="8.13" as="geometry" />
        </mxCell>
        <mxCell id="sM7RQ8VBhMA7z35c0zFS-48" value="&lt;span style=&quot;caret-color: rgb(0, 0, 255);&quot;&gt;k + 2&lt;/span&gt;" style="text;strokeColor=none;align=center;fillColor=none;html=1;verticalAlign=middle;whiteSpace=wrap;rounded=0;" vertex="1" parent="1">
          <mxGeometry x="560" y="92.2" width="40" height="11.87" as="geometry" />
        </mxCell>
        <mxCell id="sM7RQ8VBhMA7z35c0zFS-53" value="..." style="text;strokeColor=none;align=center;fillColor=none;html=1;verticalAlign=middle;whiteSpace=wrap;rounded=0;" vertex="1" parent="1">
          <mxGeometry x="384" y="191.87" width="30" height="8.13" as="geometry" />
        </mxCell>
      </root>
    </mxGraphModel>
  </diagram>
</mxfile>
